<?xml version="1.0" encoding="utf-8"?>
<!-- Generator: Adobe Illustrator 24.1.1, SVG Export Plug-In . SVG Version: 6.00 Build 0)  -->
<svg version="1.1" id="Layer_1" xmlns="http://www.w3.org/2000/svg" xmlns:xlink="http://www.w3.org/1999/xlink" x="0px" y="0px"
	 viewBox="0 0 280 244.6" style="enable-background:new 0 0 280 244.6;" xml:space="preserve">
<style type="text/css">
	.st0{fill:none;stroke:#1A1A1A;stroke-width:10;stroke-miterlimit:10;}
	.st1{fill:#1A1A1A;}
	.st2{font-family:'NotoSans-Bold';}
	.st3{font-size:94.77px;}
	.st4{font-family:'NotoSansDevanagari-Bold';}
</style>
<g id="Layer_2_1_">
	<g id="Layer_2-2">
		<path class="st0" d="M150,193.4H58l-36,39.5l4.2-39.5H18c-7.7,0-14-6.3-14-14V94c0-7.7,6.3-14,14-14l0,0h132c7.7,0,14,6.3,14,14
			l0,0v85.3C164,187,157.8,193.3,150,193.4C150.1,193.4,150,193.4,150,193.4z"/>
		<path class="st0" d="M174.3,117.4H222l36,39.5l-4.2-39.5h8.2c7.7,0,14-6.3,14-14V18c0-7.7-6.3-14-14-14H130c-7.7,0-14,6.3-14,14
			v51.6"/>
		<text transform="matrix(0.97 0 0 1 52.25 171.0801)" class="st1 st2 st3">A</text>
		<text transform="matrix(0.97 0 0 1 160.25 92.0801)" class="st1 st4 st3">अ</text>
	</g>
</g>
</svg>
