<?xml version="1.0" encoding="utf-8"?>
<!-- Generator: Adobe Illustrator 24.1.1, SVG Export Plug-In . SVG Version: 6.00 Build 0)  -->
<svg version="1.1" id="Layer_1" xmlns="http://www.w3.org/2000/svg" xmlns:xlink="http://www.w3.org/1999/xlink" x="0px" y="0px"
	 viewBox="0 0 280 244.6" style="enable-background:new 0 0 280 244.6;" xml:space="preserve">
<style type="text/css">
	.st0{fill:#1A1A1A;}
	.st1{enable-background:new    ;}
</style>
<g id="Layer_2_1_">
	<g id="Layer_2-2">
		<g>
			<path class="st0" d="M15.4,247.5l5.2-49.1H18c-10.5,0-19-8.5-19-19V94c0-10.5,8.5-19,19-19h132c10.5,0,19,8.5,19,19v85.3
				c0,10.4-8.5,19-18.9,19.1v-1.6v1.6H60.2L15.4,247.5z M18,85c-5,0-9,4-9,9v85.4c0,5,4,9,9,9h13.8l-3.2,29.9l27.2-29.9H150
				c5-0.1,9-4.2,9-9.1V94c0-5-4-9-9-9H18z"/>
		</g>
		<g>
			<path class="st0" d="M264.6,171.5l-44.8-49.1h-45.5v-10h49.9l27.2,29.9l-3.2-29.9H262c5,0,9-4,9-9V18c0-5-4-9-9-9H130
				c-5,0-9,4-9,9v51.6h-10V18c0-10.5,8.5-19,19-19h132c10.5,0,19,8.5,19,19v85.4c0,10.5-8.5,19-19,19h-2.6L264.6,171.5z"/>
		</g>
		<g class="st1">
			<path class="st0" d="M98.2,163.2L94.1,150H73.8l-4.1,13.2H56.9l19.8-55.5h14.5l19.9,55.5H98.2z M91.3,140.2
				c-3.7-11.9-5.9-18.7-6.3-20.3c-0.5-1.5-0.9-2.8-1-3.7c-0.9,3.2-3.2,11.2-7.2,23.9L91.3,140.2L91.3,140.2z"/>
		</g>
		<g class="st1">
			<path class="st0" d="M208.1,72.1c0,4.4-1.4,7.9-4.2,10.5s-7,3.8-12.4,3.8c-3.9,0-7.5-0.8-10.8-2.3s-6.5-4.3-9.6-8.2
				c-3-3.9-6.1-9.5-9.1-16.7l10.6-4.2c2.5,6.8,5.2,11.9,8.1,15.4c2.9,3.5,6.2,5.3,9.8,5.3s5.3-1.8,5.3-5.4c0-3-1-5.6-2.9-7.9
				c-2.1,0.5-4.4,0.8-6.9,0.9l-0.6-10c3.6-0.2,6.1-0.8,7.4-1.8c1.3-1,1.9-2.4,1.9-4.3c0-1.8-0.6-3-1.8-3.6s-2.6-0.9-4.1-0.9
				c-1.9,0-3.7,0.3-5.5,0.9c-1.7,0.6-3.4,1.3-5.1,2.2l-3.4-9.5c1.8-0.9,4.1-1.8,6.8-2.7c2.8-0.9,5.8-1.3,9.1-1.3
				c5.3,0,9.3,1.4,12,4.2c2.8,2.8,4.1,6.3,4.1,10.5c0,4.6-1.7,8.3-5,11.2c0.2,0.3,0.5,0.6,0.7,0.9c0.8,0.1,1.7,0.2,2.6,0.3
				c0.9,0.1,2,0.1,3.1,0.1c1.8,0,3.6-0.1,5.1-0.3c1.6-0.2,3.1-0.6,4.6-1.2V43.6H212V33.1h26.8v10.4h-8.6V92h-12.3V68.3
				c-1.3,0.5-2.6,0.8-4,1s-2.8,0.2-4.2,0.2c-0.7,0-1.4,0-2.1-0.1C208.1,70.3,208.1,71.2,208.1,72.1z"/>
		</g>
	</g>
</g>
</svg>
