
<svg xmlns="http://www.w3.org/2000/svg" viewBox="0 0 280 244.58"><defs><style>.cls-1{fill:none;stroke:#1a1a1a;stroke-miterlimit:10;stroke-width:8px;}.cls-2,.cls-3{font-size:94.77px;fill:#1a1a1a;font-weight:700;}.cls-2{font-family:NotoSans-Bold, Noto Sans;}.cls-3{font-family:NotoSansDevanagari-Bold, Noto Sans Devanagari;}</style></defs><g id="Layer_2" data-name="Layer 2"><g id="Layer_2-2" data-name="Layer 2"><path class="cls-1" d="M150,193.38H58L22,232.87l4.19-39.49H18a14,14,0,0,1-14-14V94A14,14,0,0,1,18,80H150a14,14,0,0,1,14,14v85.29A14,14,0,0,1,150,193.38Z"/><path class="cls-1" d="M174.26,117.38H222l36,39.49-4.19-39.49H262a14,14,0,0,0,14-14V18A14,14,0,0,0,262,4H130a14,14,0,0,0-14,14V69.61"/><text class="cls-2" transform="translate(52.25 171.08) scale(0.97 1)">A</text><text class="cls-3" transform="translate(160.25 92.08) scale(0.97 1)">अ</text></g></g></svg>