<svg xmlns="http://www.w3.org/2000/svg" viewBox="0 0 856.46 293.8"><defs><style>.cls-1{fill:#1a1a1a;}.cls-2{fill:#666;}</style></defs><g id="Layer_2" data-name="Layer 2"><g id="Logo"><g id="Logo-2" data-name="Logo"><path class="cls-1" d="M249.33,42.38C237.9,31.3,228.55,25.8,228,25.5a4,4,0,0,0-4,6.92,117.18,117.18,0,0,1,19.68,15.66c1,1,2.05,2,3.11,3.08l.72-.7c.35-.35,2.25-2.42,4.8-5.09C251.32,44.33,250.31,43.33,249.33,42.38ZM196.9,169c-4-16.14-13.87-27.88-23.16-35.78a87.2,87.2,0,0,0-7.56-5.77l-5.71,5.87a84.15,84.15,0,0,1,7.44,5.56c8.49,7.1,17.64,17.68,21.23,32.06,7.68,30.71-11.32,45.4-28.61,52.32-20.51,8.2-48.6,6-62.59-14-.32-.46-.63-.93-.93-1.39a42.06,42.06,0,0,1-3.21-6l-6,6.12a50.39,50.39,0,0,0,3.33,5.58l.2.29c7.6,10.88,19.06,18.08,33.14,20.82a70.31,70.31,0,0,0,39-4C180.08,224,206.46,207.21,196.9,169Z"/><path class="cls-1" d="M262,56.38c-1.34-1.68-2.68-3.28-4-4.82-.83-1-1.66-1.89-2.5-2.8-1.07-1.18-2.13-2.31-3.2-3.39-2.55,2.67-4.45,4.74-4.8,5.09l-.72.7q1.5,1.56,3,3.25c.8.87,1.6,1.77,2.39,2.7q1.88,2.16,3.74,4.5c20.51,25.85,29.61,55.81,27,89-6.06,78.79-54.36,111.28-82.58,123.63-.59.25-60,24.89-113.59-2.87l-.24-.12c-.28-.12-15.39-6.88-32.37-21.82q-1.8-1.58-3.61-3.28c-14-13.07-28.53-31.61-36.81-56.45-.19-.58-18.08-58,10.67-108.81S109.9.68,162.09,9.57c7.24,1.23,14.82,2.81,21.14,6,8.75,4.37,17,13.4,15.72,22.2-1.36,9.71-10.53,13.42-20.24,17.36l-2.77,1.13c-7.63-6.39-18.61-9.66-28.84-10a38,38,0,0,0-29,11.54,33.67,33.67,0,0,0-9,26.55c1.29,14.2,5,25.61,41.23,43.24l.18.08a69.45,69.45,0,0,1,10,5.67l5.71-5.87a79.67,79.67,0,0,0-12.49-7.12c-34.89-17-35.76-26.57-36.69-36.72a25.73,25.73,0,0,1,6.87-20.33,30,30,0,0,1,22.95-9.05c5.62.19,14.18,1.77,20.87,5.86A25.63,25.63,0,0,0,158,68.64c-3.16,5-3.88,10.71-1.93,15.34,1.7,4.06,5.29,6.86,10.09,7.89a16.06,16.06,0,0,0,14.24-3.41,16.77,16.77,0,0,0,5.2-14.41,25.21,25.21,0,0,0-4-11.5l.1,0c10.31-4.18,23.15-9.38,25.15-23.66,1.84-13.12-9.11-25-20.06-30.47-7.26-3.62-15.52-5.36-23.38-6.7C108-7.76,48,23.2,17.54,77S5.42,189.71,6.23,192.23A144.81,144.81,0,0,0,45,252q1.74,1.64,3.45,3.15c17.31,15.34,32.94,22.53,34.88,23.39,21,10.87,42.73,14.08,61,14.08A162.54,162.54,0,0,0,165,291.3c22.54-2.91,37.91-9.39,38.59-9.68A144.21,144.21,0,0,0,257.37,241C277,216.94,288.28,186.76,291,151.27,294.4,107.14,277.13,75.31,262,56.38Zm-87,26.11a8,8,0,0,1-7.23,1.56c-2.24-.48-3.72-1.55-4.4-3.17-.92-2.18-.41-5.23,1.32-8,2-3.19,5.46-5.3,9.36-7.16a17.49,17.49,0,0,1,3.52,9.06A8.9,8.9,0,0,1,175.09,82.49Z"/><path class="cls-1" d="M150.11,173.31c-.15,7.27-4.1,18.16-12.41,19.59a4,4,0,1,1-1.36-7.88c3.22-.56,5.68-7.48,5.78-11.88a17.27,17.27,0,0,0-5.73-13.08,12,12,0,0,0-1.11-.89c-4.43-3.3-10.83-4.69-17.44-3.73-11.77,1.71-20.59,8-24.84,17.84-3.74,8.65-3.36,19,.8,28.53l-6,6.12c-6.31-12.24-7.22-26.22-2.19-37.83,5.31-12.26,16.62-20.49,31-22.58,9.23-1.33,18,.8,24.21,5.89.27.21.54.44.8.67a24.25,24.25,0,0,1,4.72,5.68A25.24,25.24,0,0,1,150.11,173.31Z"/><path class="cls-2" d="M45,252,10.52,287.46c-15,15,5.48-.48,12-7,1.36-1.36,11.07-10.84,25.89-25.28Q46.7,253.66,45,252Zm91.43-92a12,12,0,0,0-1.11-.89L93.8,201.81l-6,6.12c-13.2,13.56-26,26.7-37.21,38.26q1.81,1.71,3.61,3.28l36.93-36L97,207.83c13.82-13.46,28.61-27.84,43.46-42.29A17,17,0,0,0,136.39,160.06ZM278.52,22.46c-4-3-11,3-18,9-1.69,1.45-5.79,5.48-11.19,10.92l-5.64,5.7C226.53,65.53,202,91,194.52,98.46c-2.48,2.48-13.21,13.46-28.34,29l-5.71,5.87-19.57,20.1c.27.21.54.44.8.67a24.25,24.25,0,0,1,4.72,5.68l21.49-20.89,5.83-5.66c32.56-31.64,62.1-60.29,78.5-76.1-.79-.93-1.59-1.83-2.39-2.7-5.19,5.27-19.64,19.74-21.33,18S243,54.83,246.8,51.16l.72-.7c.35-.35,2.25-2.42,4.8-5.09,5.94-6.22,15.45-15.66,17.2-13.91,1.47,1.47-8.29,11.6-14,17.3.84.91,1.67,1.84,2.5,2.8,4.15-4,6.76-6.45,7.5-7.1C273.52,37.46,282.52,25.46,278.52,22.46Z"/></g><g id="Text"><path class="cls-1" d="M391,93.58q0,12.33-8.87,19.42t-24.69,7.1q-14.56,0-25.77-5.48V96.69a105.74,105.74,0,0,0,15.6,5.79A46.11,46.11,0,0,0,359,104.16q6.35,0,9.74-2.43a8.3,8.3,0,0,0,3.4-7.22,8,8,0,0,0-1.5-4.76,16.7,16.7,0,0,0-4.39-4,113.54,113.54,0,0,0-11.8-6.16A56,56,0,0,1,341.9,72a28.29,28.29,0,0,1-6.66-8.41,24,24,0,0,1-2.49-11.21q0-12.08,8.18-19t22.64-6.91a53,53,0,0,1,13.54,1.69,92.49,92.49,0,0,1,13.48,4.73l-6.23,15a91.56,91.56,0,0,0-12.05-4.17,38.68,38.68,0,0,0-9.37-1.18q-5.47,0-8.4,2.55a8.42,8.42,0,0,0-2.93,6.66,8.3,8.3,0,0,0,1.18,4.45,13.12,13.12,0,0,0,3.77,3.68,116.21,116.21,0,0,0,12.24,6.38q12.75,6.1,17.49,12.23A23.85,23.85,0,0,1,391,93.58Z"/><path class="cls-1" d="M484,118.86H464.79V79.57H428.74v39.29h-19.3v-91h19.3V63.51h36.05V27.83H484Z"/><path class="cls-1" d="M564.63,118.86,558,97.19H524.85l-6.6,21.67h-20.8l32.13-91.4h23.6l32.25,91.4ZM553.43,81q-9.15-29.45-10.31-33.31c-.77-2.57-1.32-4.61-1.65-6.1q-2.06,8-11.76,39.41Z"/><path class="cls-1" d="M618.1,83.93v34.93H598.8v-91h26.52q18.55,0,27.46,6.76t8.9,20.51a24.12,24.12,0,0,1-4.42,14.29,29.34,29.34,0,0,1-12.51,9.81l26.77,39.66H650.1L628.37,83.93Zm0-15.69h6.23q9.15,0,13.51-3t4.35-9.59q0-6.48-4.45-9.22T624,43.65H618.1Z"/><path class="cls-1" d="M760.41,72.47q0,22.48-12.8,34.43t-37,12H684.89v-91h28.57q22.29,0,34.62,11.77T760.41,72.47Zm-20,.5q0-29.32-25.9-29.32H704.19v59.27h8.28Q740.35,102.92,740.36,73Z"/><path class="cls-1" d="M835.67,118.86l-6.6-21.67H795.88l-6.6,21.67H768.49l32.12-91.4h23.6l32.25,91.4ZM824.46,81q-9.15-29.45-10.31-33.31c-.76-2.57-1.31-4.61-1.65-6.1q-2.06,8-11.76,39.41Z"/><path class="cls-1" d="M393,246.86l-6.6-21.67H353.23l-6.6,21.67H325.84L358,155.46h23.6l32.25,91.4ZM381.81,209q-9.15-29.44-10.31-33.31c-.76-2.57-1.31-4.61-1.65-6.1q-2.06,8-11.76,39.41Z"/><path class="cls-1" d="M446.48,211.93v34.93h-19.3v-91H453.7q18.56,0,27.46,6.76t8.9,20.51a24.12,24.12,0,0,1-4.42,14.29,29.28,29.28,0,0,1-12.51,9.81l26.77,39.66H478.48l-21.73-34.93Zm0-15.69h6.23q9.15,0,13.51-3.05t4.36-9.59q0-6.48-4.46-9.22t-13.79-2.73h-5.85Z"/><path class="cls-1" d="M548.38,246.86h-19.3v-75H504.37V155.83H573.1v16.06H548.38Z"/><path class="cls-1" d="M642.75,221.58q0,12.33-8.87,19.42t-24.68,7.1q-14.58,0-25.78-5.48V224.69a105.74,105.74,0,0,0,15.6,5.79,46.11,46.11,0,0,0,11.67,1.68q6.34,0,9.74-2.43a8.27,8.27,0,0,0,3.4-7.22,8,8,0,0,0-1.5-4.76,16.7,16.7,0,0,0-4.39-4,114.14,114.14,0,0,0-11.79-6.16A55.87,55.87,0,0,1,593.63,200a28.29,28.29,0,0,1-6.66-8.41,24,24,0,0,1-2.49-11.21q0-12.07,8.19-19t22.63-6.91a53.49,53.49,0,0,1,13.54,1.68,93.37,93.37,0,0,1,13.48,4.74l-6.23,15A91.07,91.07,0,0,0,624,171.77a38.62,38.62,0,0,0-9.37-1.18q-5.48,0-8.4,2.55a8.42,8.42,0,0,0-2.93,6.66,8.22,8.22,0,0,0,1.19,4.45,13,13,0,0,0,3.76,3.68,116.21,116.21,0,0,0,12.24,6.38q12.76,6.1,17.49,12.23A23.85,23.85,0,0,1,642.75,221.58Z"/></g></g></g></svg>