<svg xmlns="http://www.w3.org/2000/svg" viewBox="0 0 650.05 293.8"><defs><style>.cls-1{fill:#1a1a1a;}.cls-2{fill:#666;}</style></defs><g id="Layer_2" data-name="Layer 2"><g id="Logo"><g id="Logo-2" data-name="Logo"><path class="cls-1" d="M249.33,42.38C237.9,31.3,228.55,25.8,228,25.5a4,4,0,0,0-4,6.92,117.18,117.18,0,0,1,19.68,15.66c1,1,2.05,2,3.11,3.08l.72-.7c.35-.35,2.25-2.42,4.8-5.09C251.32,44.33,250.31,43.33,249.33,42.38ZM196.9,169c-4-16.14-13.87-27.88-23.16-35.78a87.2,87.2,0,0,0-7.56-5.77l-5.71,5.87a84.15,84.15,0,0,1,7.44,5.56c8.49,7.1,17.64,17.68,21.23,32.06,7.68,30.71-11.32,45.4-28.61,52.32-20.51,8.2-48.6,6-62.59-14-.32-.46-.63-.93-.93-1.39a42.06,42.06,0,0,1-3.21-6l-6,6.12a50.39,50.39,0,0,0,3.33,5.58l.2.29c7.6,10.88,19.06,18.08,33.14,20.82a70.31,70.31,0,0,0,39-4C180.08,224,206.46,207.21,196.9,169Z"/><path class="cls-1" d="M262,56.38c-1.34-1.68-2.68-3.28-4-4.82-.83-1-1.66-1.89-2.5-2.8-1.07-1.18-2.13-2.31-3.2-3.39-2.55,2.67-4.45,4.74-4.8,5.09l-.72.7q1.5,1.56,3,3.25c.8.87,1.6,1.77,2.39,2.7q1.88,2.16,3.74,4.5c20.51,25.85,29.61,55.81,27,89-6.06,78.79-54.36,111.28-82.58,123.63-.59.25-60,24.89-113.59-2.87l-.24-.12c-.28-.12-15.39-6.88-32.37-21.82q-1.8-1.58-3.61-3.28c-14-13.07-28.53-31.61-36.81-56.45-.19-.58-18.08-58,10.67-108.81S109.9.68,162.09,9.57c7.24,1.23,14.82,2.81,21.14,6,8.75,4.37,17,13.4,15.72,22.2-1.36,9.71-10.53,13.42-20.24,17.36l-2.77,1.13c-7.63-6.39-18.61-9.66-28.84-10a38,38,0,0,0-29,11.54,33.67,33.67,0,0,0-9,26.55c1.29,14.2,5,25.61,41.23,43.24l.18.08a69.45,69.45,0,0,1,10,5.67l5.71-5.87a79.67,79.67,0,0,0-12.49-7.12c-34.89-17-35.76-26.57-36.69-36.72a25.73,25.73,0,0,1,6.87-20.33,30,30,0,0,1,22.95-9.05c5.62.19,14.18,1.77,20.87,5.86A25.63,25.63,0,0,0,158,68.64c-3.16,5-3.88,10.71-1.93,15.34,1.7,4.06,5.29,6.86,10.09,7.89a16.06,16.06,0,0,0,14.24-3.41,16.77,16.77,0,0,0,5.2-14.41,25.21,25.21,0,0,0-4-11.5l.1,0c10.31-4.18,23.15-9.38,25.15-23.66,1.84-13.12-9.11-25-20.06-30.47-7.26-3.62-15.52-5.36-23.38-6.7C108-7.76,48,23.2,17.54,77S5.42,189.71,6.23,192.23A144.81,144.81,0,0,0,45,252q1.74,1.64,3.45,3.15c17.31,15.34,32.94,22.53,34.88,23.39,21,10.87,42.73,14.08,61,14.08A162.54,162.54,0,0,0,165,291.3c22.54-2.91,37.91-9.39,38.59-9.68A144.21,144.21,0,0,0,257.37,241C277,216.94,288.28,186.76,291,151.27,294.4,107.14,277.13,75.31,262,56.38Zm-87,26.11a8,8,0,0,1-7.23,1.56c-2.24-.48-3.72-1.55-4.4-3.17-.92-2.18-.41-5.23,1.32-8,2-3.19,5.46-5.3,9.36-7.16a17.49,17.49,0,0,1,3.52,9.06A8.9,8.9,0,0,1,175.09,82.49Z"/><path class="cls-1" d="M150.11,173.31c-.15,7.27-4.1,18.16-12.41,19.59a4,4,0,1,1-1.36-7.88c3.22-.56,5.68-7.48,5.78-11.88a17.27,17.27,0,0,0-5.73-13.08,12,12,0,0,0-1.11-.89c-4.43-3.3-10.83-4.69-17.44-3.73-11.77,1.71-20.59,8-24.84,17.84-3.74,8.65-3.36,19,.8,28.53l-6,6.12c-6.31-12.24-7.22-26.22-2.19-37.83,5.31-12.26,16.62-20.49,31-22.58,9.23-1.33,18,.8,24.21,5.89.27.21.54.44.8.67a24.25,24.25,0,0,1,4.72,5.68A25.24,25.24,0,0,1,150.11,173.31Z"/><path class="cls-2" d="M45,252,10.52,287.46c-15,15,5.48-.48,12-7,1.36-1.36,11.07-10.84,25.89-25.28Q46.7,253.66,45,252Zm91.43-92a12,12,0,0,0-1.11-.89L93.8,201.81l-6,6.12c-13.2,13.56-26,26.7-37.21,38.26q1.81,1.71,3.61,3.28l36.93-36L97,207.83c13.82-13.46,28.61-27.84,43.46-42.29A17,17,0,0,0,136.39,160.06ZM278.52,22.46c-4-3-11,3-18,9-1.69,1.45-5.79,5.48-11.19,10.92l-5.64,5.7C226.53,65.53,202,91,194.52,98.46c-2.48,2.48-13.21,13.46-28.34,29l-5.71,5.87-19.57,20.1c.27.21.54.44.8.67a24.25,24.25,0,0,1,4.72,5.68l21.49-20.89,5.83-5.66c32.56-31.64,62.1-60.29,78.5-76.1-.79-.93-1.59-1.83-2.39-2.7-5.19,5.27-19.64,19.74-21.33,18S243,54.83,246.8,51.16l.72-.7c.35-.35,2.25-2.42,4.8-5.09,5.94-6.22,15.45-15.66,17.2-13.91,1.47,1.47-8.29,11.6-14,17.3.84.91,1.67,1.84,2.5,2.8,4.15-4,6.76-6.45,7.5-7.1C273.52,37.46,282.52,25.46,278.52,22.46Z"/></g><g id="Text"><path class="cls-1" d="M343.77,95.57a16,16,0,0,1-9.38-2.81q-4-2.82-4-8.57a10.11,10.11,0,0,1,2.94-7.56c2-1.92,4.73-2.88,8.3-2.88a19.21,19.21,0,0,1,6,1.07,24.78,24.78,0,0,1,6.56,3.48,21.34,21.34,0,0,0,8.9-7.63,22.13,22.13,0,0,0,3.41-12.58q0-7.1-3.08-10.58A9.92,9.92,0,0,0,355.68,44a6.73,6.73,0,0,0-4.28,1.27A4.43,4.43,0,0,0,349.79,49q0,2.55,2.68,4.69t10.44,3.08l-3.75,12q-13.52-1.2-19.88-6.82t-6.36-13.39a16.16,16.16,0,0,1,5.69-12.65q5.68-5,16.53-5a35,35,0,0,1,14.4,2.95,24.64,24.64,0,0,1,10.7,9.1q4.1,6.16,4.09,15.66a35.87,35.87,0,0,1-4.42,17.54,35.08,35.08,0,0,1-12.32,13,121,121,0,0,1,8.84,9q4.27,4.83,7.9,9.37l-13.26,9.11q-5.35-7-10-12.32t-8.7-9.37A53.19,53.19,0,0,1,343.77,95.57ZM415.25,47v68.54H397.31V47h-10V32.25h40.56V47Z"/><path class="cls-1" d="M456.62,47v68.54H438.68V47H428V32.25h41.36V47Z"/><path class="cls-1" d="M522.48,105.88l-11.65,11.91q-11.77-10-21.15-19a138.37,138.37,0,0,1-14.06-15.13,26.38,26.38,0,0,1-3.88-6.82,16.44,16.44,0,0,1-.94-5.09A11.46,11.46,0,0,1,473.15,65q2.34-3.29,8.23-3.28a15.3,15.3,0,0,1,11.38,4.82q7.1-4.68,7.09-12.45a29.11,29.11,0,0,0-.8-7.1h-32.4V32.25H527.3V47H516.59a33.88,33.88,0,0,1,.87,4.36,43.38,43.38,0,0,1,.33,5.68,22.7,22.7,0,0,1-5.62,15.6Q506.55,79,496.24,82.85q5.22,5.22,12.05,11.38T522.48,105.88Z"/><path class="cls-1" d="M579.1,124.62q-2.69-4.43-5.22-9.37t-4.28-8.57a69.24,69.24,0,0,1-7.9.4,56.11,56.11,0,0,1-12.45-1.4A36.75,36.75,0,0,1,538,101.12a23.13,23.13,0,0,1-8.1-8.5,26.46,26.46,0,0,1-3-13.12,22.43,22.43,0,0,1,2.21-10.24,21.58,21.58,0,0,1,6-7.29,31.2,31.2,0,0,1,10.24-5.16,56,56,0,0,1,13.19-2.2V47H521.94V32.25h76.57V47H576.42V69.33H569.6a80.86,80.86,0,0,0-12,.67,26.65,26.65,0,0,0-7.3,2.14q-5.62,2.69-5.62,8.57a10.21,10.21,0,0,0,4.15,8.37q4.14,3.27,14.32,3.28h1a8.69,8.69,0,0,0,1.41-.14,15.59,15.59,0,0,1-.27-2.81c0-3.3,1.21-5.67,3.62-7.09a14.94,14.94,0,0,1,7.76-2.15q7.09,0,10.84,3.82a12.3,12.3,0,0,1,3.75,8.9c0,3.13-.69,5.49-2.07,7.1a15.63,15.63,0,0,1-5.16,3.88,167.83,167.83,0,0,0,9.64,14.32Z"/><path class="cls-1" d="M627.29,47v68.54H609.35V47H598.64V32.25H640V47Z"/><path class="cls-1" d="M395.3,221.65q0,9.38-6.15,14.79t-18.08,5.42a37.89,37.89,0,0,1-15.73-3.28q-7.29-3.27-13.92-11.64t-13.18-23.63l15.39-5.89q5.49,14.33,11.78,21.82t14.33,7.5q7.75,0,7.76-7.63A16.23,16.23,0,0,0,373.22,208a49.59,49.59,0,0,1-10,1.2L362.37,195q7.9-.4,10.71-2.54a7.13,7.13,0,0,0,2.81-6q0-3.87-2.67-5.15a13.88,13.88,0,0,0-6-1.27,26.32,26.32,0,0,0-8,1.2,47,47,0,0,0-7.43,3.08l-5-13.39a58.52,58.52,0,0,1,10-3.81,46.48,46.48,0,0,1,13.32-1.81q11.5,0,17.53,5.89a19.91,19.91,0,0,1,6,14.86,19.57,19.57,0,0,1-7.23,15.8,11.64,11.64,0,0,0,1.07,1.2c1.16.18,2.41.32,3.75.4s2.85.14,4.55.14a56.82,56.82,0,0,0,7.5-.47,30.63,30.63,0,0,0,6.69-1.67V181.36h-8.57V166.63H480v14.73H467.46V249.9H449.52V181.36H428V249.9H410V216.29a23.24,23.24,0,0,1-5.82,1.41,55.93,55.93,0,0,1-6.09.34c-1,0-2,0-3.08-.14A27.8,27.8,0,0,1,395.3,221.65Z"/><path class="cls-1" d="M549.12,181.36H530.24v24.76h-9.1a51,51,0,0,0-10.84.87,25.12,25.12,0,0,0-6.43,2.34,11.84,11.84,0,0,0-6.29,11q0,7.63,5.29,11t13.18,3.34A44,44,0,0,0,528.3,233a49.09,49.09,0,0,0,10.91-4.69l5.62,15a80,80,0,0,1-13,4.75,63.12,63.12,0,0,1-16.2,1.81A46.41,46.41,0,0,1,497,246.35,29,29,0,0,1,484.26,236a28.67,28.67,0,0,1-4.62-16.46,25.09,25.09,0,0,1,4.28-14.79,27.6,27.6,0,0,1,11.72-9.38,46,46,0,0,1,16.66-3.68v-10.3H474.82V166.63h74.3Z"/><path class="cls-1" d="M519.13,254.71a24.86,24.86,0,0,1,4.68-.93,45.93,45.93,0,0,1,4.82-.27,38.24,38.24,0,0,1,16.27,3.21,44.89,44.89,0,0,1,12.45,8.64,120.13,120.13,0,0,1,10.77,12.11l-12.18,8.3a93.28,93.28,0,0,0-8.83-10.37,28.1,28.1,0,0,0-8.24-5.83A24,24,0,0,0,529,267.7a25.54,25.54,0,0,0-3.89.27c-1.16.18-2.23.35-3.21.53Z"/><path class="cls-1" d="M637.47,181.36V249.9H619.53V218.57a56.11,56.11,0,0,1-7.43,1.14q-3.81.33-7.83.33a62.67,62.67,0,0,1-14.53-1.47,58.38,58.38,0,0,1-10-3.21c-.89.45-1.83.93-2.81,1.47q4.95,5.63,11.51,11.78t13.66,11.91l-11.38,11.65q-11-10-19.75-19A172.07,172.07,0,0,1,557.55,218a26.28,26.28,0,0,1-3.88-6.83,16.15,16.15,0,0,1-.94-5.09,11.51,11.51,0,0,1,2.34-6.76q2.34-3.29,8.24-3.28a15.16,15.16,0,0,1,10.57,4,18.49,18.49,0,0,0,2.08-5.49,30.08,30.08,0,0,0,.6-6,28.85,28.85,0,0,0-.94-7.22h-27V166.63H650.05v14.73Zm-34.81,24c3.21,0,6.14-.14,8.77-.4a46.23,46.23,0,0,0,8.1-1.61V181.36H593.29a30.33,30.33,0,0,1,.87,4.35,43.29,43.29,0,0,1,.34,5.69,29.58,29.58,0,0,1-.81,7.22,21.84,21.84,0,0,1-2.27,5.76q2.67.41,5.42.67T602.66,205.32Z"/></g><g id="Text-2" data-name="Text"><path class="cls-1" d="M519.68,181.61c-1.16-.9-2.59-2-4.28-3.35s-3.48-2.77-5.36-4.28q-8.3-7-11.31-12a20.68,20.68,0,0,1-3-10.71q0-9,6.69-13.25a22.9,22.9,0,0,1,7-2.95q4.21-1.07,13.19-1.07H539.9V146.8H524.63c-3.12,0-5.37,0-6.76.13a8.54,8.54,0,0,0-3.54.94,4,4,0,0,0-2,3.62,8.4,8.4,0,0,0,.73,3.41,14.55,14.55,0,0,0,2.82,3.88q2.07,2.21,6,5.69,1.47,1.34,3.42,2.81t3.68,2.68Z"/></g></g></g></svg>